# xmcd
#
# Track frame offsets: 
#        150
#        38187
#        71240
#        109142
#        131475
#        163187
#        180485
#        204277
#        228465
#        251682
#        284457
#
# Disc length: 4211 seconds
#
# Revision: 2
# Processed by: cddbd v1.5.1PL0 Copyright (c) Steve Scherf et al.
# Submitted via: ExactAudioCopy v0.95a5
#
DISCID=a010710b
DTITLE=Various Artist - Jazz Guitar on Bluenote
DYEAR=1900
DGENRE=Jazz
TTITLE0=John Scofield - Grace Under Pressure
TTITLE1=Grant Green - I Want to Hold Your Hand
TTITLE2=Kenny Burrell - Lover Man
TTITLE3=Bireli Lagrene - Autumn Leaves
TTITLE4=Stanley Jordon - Eleanor Rigby
TTITLE5=Fareed Haque - Another Day in Paradise
TTITLE6=Charlie Hunter - No Woman, No Cry
TTITLE7=Earl Klugh - Captain Caribe
TTITLE8=Kevin Euhanks - Colors of One
TTITLE9=Michael Petrucciani and Jim Hall - Beautiful Love
TTITLE10=John Scofield and Pat Metheny - You Speak My Language
EXTD=
EXTT0=
EXTT1=
EXTT2=
EXTT3=
EXTT4=
EXTT5=
EXTT6=
EXTT7=
EXTT8=
EXTT9=
EXTT10=
PLAYORDER=
